<svg width="130" height="129" viewBox="0 0 130 129" fill="none" xmlns="http://www.w3.org/2000/svg">
<rect x="0.666992" width="129" height="129" rx="64.5" fill="white"/>
<path d="M38.7188 78.5801V85.7832H31.0625C30.1148 85.775 29.2087 85.3927 28.5415 84.7196C27.8743 84.0466 27.5 83.1372 27.5 82.1895C27.5 81.7155 27.5934 81.2461 27.7747 80.8082C27.9561 80.3703 28.222 79.9724 28.5572 79.6372C28.8923 79.3021 29.2902 79.0362 29.7281 78.8548C30.166 78.6734 30.6354 78.5801 31.1094 78.5801H38.7188Z" fill="#D3DEEA"/>
<path d="M38.7188 78.5801H36.0938V85.7832H38.7188V78.5801Z" fill="#A2B9D0"/>
<path d="M38.7188 67.1543V74.3731H31.0625C30.1121 74.3648 29.2037 73.9804 28.536 73.304C27.8684 72.6275 27.4959 71.7141 27.5 70.7637C27.498 70.2891 27.5899 69.8189 27.7706 69.38C27.9512 68.9412 28.217 68.5425 28.5526 68.2069C28.8882 67.8713 29.2869 67.6055 29.7257 67.4249C30.1646 67.2442 30.6348 67.1523 31.1094 67.1543H38.7188Z" fill="#D3DEEA"/>
<path d="M38.7188 67.1543H36.0938V74.3574H38.7188V67.1543Z" fill="#A2B9D0"/>
<path d="M38.7188 55.7344V62.9375H31.0625C30.1121 62.9293 29.2037 62.5449 28.536 61.8684C27.8684 61.192 27.4959 60.2786 27.5 59.3282C27.5 58.8549 27.5935 58.3863 27.7751 57.9493C27.9567 57.5122 28.2228 57.1154 28.5581 56.7815C28.8935 56.4475 29.2915 56.1832 29.7293 56.0035C30.1672 55.8238 30.6362 55.7324 31.1094 55.7344H38.7188Z" fill="#D3DEEA"/>
<path d="M38.7188 55.7344H36.0938V62.9375H38.7188V55.7344Z" fill="#A2B9D0"/>
<path d="M38.7188 44.3125V51.5157H31.0625C30.1134 51.5033 29.2073 51.1176 28.5405 50.4421C27.8738 49.7665 27.4999 48.8555 27.5 47.9063C27.5 47.433 27.5935 46.9644 27.775 46.5274C27.9566 46.0904 28.2227 45.6935 28.5581 45.3596C28.8935 45.0257 29.2915 44.7613 29.7293 44.5816C30.1671 44.4019 30.6361 44.3105 31.1094 44.3125H38.7188Z" fill="#D3DEEA"/>
<path d="M38.7188 44.3125H36.0938V51.5156H38.7188V44.3125Z" fill="#A2B9D0"/>
<path d="M91.3281 51.5157V44.3125H98.9844C99.4576 44.3105 99.9266 44.4019 100.364 44.5816C100.802 44.7613 101.2 45.0257 101.536 45.3596C101.871 45.6935 102.137 46.0904 102.319 46.5274C102.5 46.9644 102.594 47.433 102.594 47.9063C102.594 48.8635 102.213 49.7816 101.537 50.4585C100.86 51.1354 99.9416 51.5157 98.9844 51.5157H91.3281Z" fill="#D3DEEA"/>
<path d="M93.9531 44.3125H91.3281V51.5156H93.9531V44.3125Z" fill="#A2B9D0"/>
<path d="M91.3281 62.9375V55.7344H98.9844C99.4576 55.7324 99.9266 55.8238 100.364 56.0035C100.802 56.1832 101.2 56.4475 101.536 56.7815C101.871 57.1154 102.137 57.5122 102.319 57.9493C102.5 58.3863 102.594 58.8549 102.594 59.3282C102.596 59.8027 102.504 60.273 102.323 60.7118C102.143 61.1507 101.877 61.5494 101.541 61.885C101.206 62.2206 100.807 62.4863 100.368 62.667C99.9292 62.8477 99.4589 62.9396 98.9844 62.9375H91.3281Z" fill="#D3DEEA"/>
<path d="M93.9531 55.7344H91.3281V62.9375H93.9531V55.7344Z" fill="#A2B9D0"/>
<path d="M91.3281 74.3731V67.1543H98.9844C99.4589 67.1523 99.9292 67.2442 100.368 67.4249C100.807 67.6055 101.206 67.8713 101.541 68.2069C101.877 68.5425 102.143 68.9412 102.323 69.38C102.504 69.8189 102.596 70.2891 102.594 70.7637C102.596 71.2383 102.504 71.7086 102.323 72.1474C102.143 72.5862 101.877 72.985 101.541 73.3205C101.206 73.6561 100.807 73.9219 100.368 74.1025C99.9292 74.2832 99.4589 74.3751 98.9844 74.3731H91.3281Z" fill="#D3DEEA"/>
<path d="M93.9531 67.1543H91.3281V74.3574H93.9531V67.1543Z" fill="#A2B9D0"/>
<path d="M91.3281 85.7832V78.5801H98.9844C99.4584 78.5801 99.9277 78.6734 100.366 78.8548C100.804 79.0362 101.201 79.3021 101.537 79.6372C101.872 79.9724 102.138 80.3703 102.319 80.8082C102.5 81.2461 102.594 81.7155 102.594 82.1895C102.594 82.6627 102.5 83.1313 102.319 83.5683C102.137 84.0054 101.871 84.4022 101.536 84.7362C101.2 85.0701 100.802 85.3345 100.364 85.5141C99.9266 85.6938 99.4576 85.7853 98.9844 85.7832H91.3281Z" fill="#D3DEEA"/>
<path d="M93.9531 78.5801H91.3281V85.7832H93.9531V78.5801Z" fill="#A2B9D0"/>
<path d="M51.4844 38.7344H44.2812V31.0782C44.2833 30.6062 44.3783 30.1393 44.5608 29.7041C44.7433 29.2688 45.0097 28.8738 45.3449 28.5416C45.68 28.2093 46.0774 27.9463 46.5142 27.7676C46.951 27.5889 47.4187 27.498 47.8906 27.5C48.8437 27.5 49.7578 27.8787 50.4318 28.5526C51.1057 29.2266 51.4844 30.1407 51.4844 31.0938V38.7344Z" fill="#D3DEEA"/>
<path d="M51.4844 36.127H44.2812V38.752H51.4844V36.127Z" fill="#A2B9D0"/>
<path d="M62.9063 38.7344H55.7031V31.0781C55.7114 30.1263 56.0953 29.2162 56.7713 28.5461C57.4473 27.8759 58.3606 27.5 59.3125 27.5C60.2656 27.5 61.1797 27.8786 61.8537 28.5526C62.5276 29.2265 62.9063 30.1406 62.9063 31.0938V38.7344Z" fill="#D3DEEA"/>
<path d="M62.9063 36.127H55.7031V38.752H62.9063V36.127Z" fill="#A2B9D0"/>
<path d="M74.375 38.7345H67.1406V31.0783C67.1448 30.1278 67.5252 29.2178 68.1987 28.5472C68.8722 27.8766 69.784 27.5001 70.7344 27.5001C71.2084 27.496 71.6785 27.5853 72.118 27.7629C72.5575 27.9405 72.9577 28.2029 73.2958 28.5352C73.6338 28.8674 73.9032 29.263 74.0883 29.6994C74.2735 30.1357 74.3709 30.6043 74.375 31.0783V38.7345Z" fill="#D3DEEA"/>
<path d="M74.3438 36.127H67.1406V38.752H74.3438V36.127Z" fill="#A2B9D0"/>
<path d="M85.7656 38.7345H78.5625V31.0783C78.5645 30.605 78.66 30.1368 78.8435 29.7005C79.027 29.2643 79.2948 28.8686 79.6316 28.5361C79.9685 28.2036 80.3676 27.941 80.8062 27.7632C81.2448 27.5854 81.7143 27.496 82.1875 27.5001C82.6608 27.4981 83.1297 27.5895 83.5676 27.7692C84.0054 27.9489 84.4034 28.2133 84.7388 28.5472C85.0741 28.8811 85.3403 29.278 85.5218 29.715C85.7034 30.152 85.7969 30.6206 85.7969 31.0939L85.7656 38.7345Z" fill="#D3DEEA"/>
<path d="M85.7656 36.127H78.5625V38.752H85.7656V36.127Z" fill="#A2B9D0"/>
<path d="M78.5625 91.3613H85.7656V99.0176C85.7656 99.968 85.3892 100.88 84.7186 101.553C84.048 102.227 83.1379 102.607 82.1875 102.611C81.2344 102.611 80.3203 102.233 79.6463 101.559C78.9724 100.885 78.5938 99.9707 78.5938 99.0176L78.5625 91.3613Z" fill="#D3DEEA"/>
<path d="M85.7656 91.3613H78.5625V93.9863H85.7656V91.3613Z" fill="#A2B9D0"/>
<path d="M67.1406 91.3613H74.375V99.0176C74.3709 99.9721 73.9888 100.886 73.3123 101.56C72.6359 102.233 71.7202 102.611 70.7656 102.611C69.8125 102.611 68.8984 102.233 68.2245 101.559C67.5505 100.885 67.1719 99.9707 67.1719 99.0176L67.1406 91.3613Z" fill="#D3DEEA"/>
<path d="M74.3438 91.3613H67.1406V93.9863H74.3438V91.3613Z" fill="#A2B9D0"/>
<path d="M55.7031 91.3613H62.9063V99.0176C62.9063 99.9707 62.5276 100.885 61.8537 101.559C61.1797 102.233 60.2656 102.611 59.3125 102.611C58.3579 102.611 57.4422 102.233 56.7658 101.56C56.0894 100.886 55.7073 99.9721 55.7031 99.0176V91.3613Z" fill="#D3DEEA"/>
<path d="M62.9063 91.3613H55.7031V93.9863H62.9063V91.3613Z" fill="#A2B9D0"/>
<path d="M44.2813 91.3613H51.4844V99.0176C51.4844 99.9707 51.1057 100.885 50.4318 101.559C49.7578 102.233 48.8437 102.611 47.8906 102.611C47.4174 102.613 46.9484 102.522 46.5106 102.342C46.0727 102.163 45.6747 101.898 45.3394 101.564C45.004 101.23 44.7379 100.834 44.5563 100.396C44.3747 99.9594 44.2812 99.4908 44.2813 99.0176V91.3613Z" fill="#D3DEEA"/>
<path d="M51.4844 91.3613H44.2812V93.9863H51.4844V91.3613Z" fill="#A2B9D0"/>
<path d="M85.5156 38.6719H44.4844C41.2742 38.6719 38.6719 41.2742 38.6719 44.4844V85.5156C38.6719 88.7258 41.2742 91.3281 44.4844 91.3281H85.5156C88.7258 91.3281 91.3281 88.7258 91.3281 85.5156V44.4844C91.3281 41.2742 88.7258 38.6719 85.5156 38.6719Z" fill="#1F3145"/>
<path d="M65 81.0625C66.5706 81.0625 67.8437 79.7893 67.8437 78.2187C67.8437 76.6482 66.5706 75.375 65 75.375C63.4294 75.375 62.1562 76.6482 62.1562 78.2187C62.1562 79.7893 63.4294 81.0625 65 81.0625Z" fill="#1A2B3B"/>
<path d="M77.2187 61.8733C77.2221 59.8157 76.7057 57.7905 75.7176 55.9857C74.7294 54.1809 73.3015 52.6548 71.5662 51.549C69.831 50.4433 67.8446 49.7937 65.7912 49.6604C63.7379 49.5272 61.6842 49.9146 59.8206 50.7868C57.957 51.659 56.3438 52.9878 55.1307 54.6498C53.9176 56.3118 53.1438 58.2532 52.8812 60.294C52.6186 62.3348 52.8756 64.4089 53.6284 66.3239C54.3812 68.2388 55.6054 69.9327 57.1875 71.2483C57.9912 71.9089 58.639 72.7388 59.0847 73.6787C59.5303 74.6187 59.7629 75.6455 59.7656 76.6858V77.4983C59.7656 77.7281 59.8109 77.9557 59.8988 78.168C59.9868 78.3803 60.1157 78.5733 60.2782 78.7358C60.4407 78.8983 60.6336 79.0272 60.8459 79.1151C61.0582 79.2031 61.2858 79.2483 61.5156 79.2483H68.3594C68.5944 79.2567 68.8287 79.2177 69.0483 79.1335C69.2679 79.0493 69.4682 78.9217 69.6374 78.7584C69.8066 78.595 69.9411 78.3993 70.0329 78.1828C70.1248 77.9663 70.172 77.7335 70.1719 77.4983V76.7327C70.1719 75.6789 70.4092 74.6387 70.8664 73.6892C71.3235 72.7398 71.9887 71.9055 72.8125 71.2483C74.1896 70.1045 75.2983 68.6717 76.0597 67.0516C76.8212 65.4314 77.2169 63.6635 77.2187 61.8733Z" fill="white"/>
<path d="M59.0938 76.0469C59.1093 76.3279 59.1093 76.6096 59.0938 76.8906V77.75C59.0937 78.2763 59.3028 78.781 59.675 79.1532C60.0471 79.5253 60.5518 79.7344 61.0781 79.7344H68.8906C69.4169 79.7344 69.9217 79.5253 70.2938 79.1532C70.6659 78.781 70.875 78.2763 70.875 77.75V76.8906C70.8595 76.6096 70.8595 76.3279 70.875 76.0469H59.0938Z" fill="#A2B9D0"/>
<path d="M64.9367 61.1747C64.6368 61.1805 64.344 61.0828 64.1077 60.8981C63.8714 60.7134 63.7059 60.4529 63.6391 60.1605C63.5794 59.8679 63.6262 59.5637 63.771 59.3025C63.9158 59.0414 64.1491 58.8406 64.4288 58.7363C64.7086 58.6319 65.0164 58.6309 65.2968 58.7334C65.5772 58.8359 65.8118 59.0352 65.9583 59.2954C66.0788 59.4891 66.2487 59.6472 66.4505 59.7534C66.6524 59.8595 66.8789 59.91 67.1067 59.8995C67.3342 59.9024 67.5586 59.8462 67.7578 59.7362C67.957 59.6263 68.1242 59.4665 68.243 59.2725C68.3618 59.0785 68.4282 58.8569 68.4355 58.6295C68.4429 58.4022 68.391 58.1768 68.285 57.9755C67.824 57.1682 67.0923 56.55 66.2193 56.2305C66.2193 55.9041 66.0897 55.5911 65.8589 55.3604C65.6282 55.1296 65.3152 55 64.9889 55H64.8099C64.4836 55 64.1706 55.1296 63.9398 55.3604C63.7091 55.5911 63.5794 55.9041 63.5794 56.2305C63.0731 56.4157 62.6104 56.7032 62.2199 57.075C61.8295 57.4467 61.5197 57.8949 61.3099 58.3915C61.1001 58.8881 60.9946 59.4226 61.0002 59.9617C61.0058 60.5008 61.1222 61.033 61.3422 61.5251C61.6707 62.2088 62.1862 62.7853 62.829 63.1879C63.4718 63.5904 64.2155 63.8025 64.974 63.7996C65.1904 63.8121 65.3998 63.8805 65.5819 63.9982C65.7639 64.1158 65.9123 64.2787 66.0126 64.4709C66.1129 64.663 66.1615 64.8779 66.1539 65.0946C66.1463 65.3112 66.0825 65.5221 65.969 65.7067C65.8554 65.8914 65.6959 66.0434 65.506 66.1479C65.3161 66.2524 65.1024 66.3059 64.8856 66.3031C64.6689 66.3003 64.4566 66.2413 64.2695 66.1319C64.0823 66.0225 63.9268 65.8664 63.8181 65.6789C63.703 65.4855 63.539 65.3258 63.3427 65.2159C63.1463 65.1059 62.9245 65.0496 62.6995 65.0525C62.472 65.0495 62.2476 65.1057 62.0484 65.2157C61.8492 65.3256 61.682 65.4854 61.5632 65.6794C61.4444 65.8734 61.3781 66.095 61.3707 66.3224C61.3633 66.5497 61.4152 66.7751 61.5212 66.9764C61.9825 67.7818 62.7145 68.3974 63.5869 68.714C63.5869 69.0403 63.7165 69.3533 63.9473 69.5841C64.178 69.8148 64.491 69.9444 64.8174 69.9444H64.9963C65.3227 69.9444 65.6356 69.8148 65.8664 69.5841C66.0971 69.3533 66.2268 69.0403 66.2268 68.714C67.0883 68.4088 67.815 67.8101 68.2795 67.0229C68.744 66.2357 68.9167 65.3102 68.7673 64.4084C68.6179 63.5067 68.156 62.6863 67.4624 62.091C66.7688 61.4956 65.8879 61.1633 64.974 61.1523L64.9367 61.1747Z" fill="#2B4864"/>
</svg>
