<svg width="130" height="129" viewBox="0 0 130 129" fill="none" xmlns="http://www.w3.org/2000/svg">
<rect x="0.333252" width="129" height="129" rx="64.5" fill="white"/>
<path d="M40.3393 49.2504H89.6599C90.8285 49.2504 91.9492 49.7146 92.7756 50.541C93.6019 51.3673 94.0661 52.488 94.0661 53.6566V88.422H35.8743V53.6566C35.8742 53.073 35.9901 52.4952 36.2152 51.9568C36.4403 51.4183 36.7701 50.9299 37.1855 50.52C37.6009 50.1101 38.0936 49.7867 38.635 49.5688C39.1764 49.3508 39.7557 49.2426 40.3393 49.2504Z" fill="#D3DEEA"/>
<path d="M76.6764 77.5098H53.3232V92.6379H76.6764V77.5098Z" fill="white"/>
<path d="M56.4514 81.5625C54.1882 81.5625 52.0177 82.4616 50.4174 84.0619C48.817 85.6622 47.918 87.8327 47.918 90.096H64.9995C64.9995 88.9741 64.7783 87.8632 64.3486 86.8269C63.9188 85.7907 63.2889 84.8493 62.495 84.0567C61.701 83.2641 60.7585 82.6358 59.7215 82.2079C58.6845 81.7799 57.5733 81.5606 56.4514 81.5625Z" fill="white"/>
<path d="M47.9182 86.4092C47.2182 86.413 46.548 86.6928 46.053 87.1878C45.558 87.6827 45.2783 88.353 45.2744 89.0529H50.5619C50.5581 88.353 50.2783 87.6827 49.7833 87.1878C49.2884 86.6928 48.6181 86.413 47.9182 86.4092Z" fill="white"/>
<path d="M42.0873 83.7656C40.685 83.7656 39.3401 84.3227 38.3485 85.3143C37.3569 86.3059 36.7998 87.6508 36.7998 89.0531H47.3748C47.3748 87.6508 46.8177 86.3059 45.8261 85.3143C44.8345 84.3227 43.4896 83.7656 42.0873 83.7656Z" fill="white"/>
<path d="M48.5936 80.7392C48.5936 81.0965 48.4876 81.4458 48.2891 81.7429C48.0906 82.0399 47.8085 82.2715 47.4784 82.4082C47.1483 82.545 46.785 82.5807 46.4346 82.511C46.0841 82.4413 45.7623 82.2693 45.5096 82.0166C45.2569 81.764 45.0849 81.4421 45.0152 81.0916C44.9455 80.7412 44.9813 80.3779 45.118 80.0478C45.2547 79.7177 45.4863 79.4356 45.7834 79.2371C46.0804 79.0386 46.4297 78.9326 46.787 78.9326C47.2662 78.9326 47.7257 79.123 48.0645 79.4617C48.4033 79.8005 48.5936 80.26 48.5936 80.7392Z" fill="white"/>
<path d="M48.2856 84.4122C48.2856 84.4906 48.2623 84.5673 48.2187 84.6325C48.1752 84.6977 48.1132 84.7486 48.0408 84.7786C47.9683 84.8086 47.8886 84.8164 47.8116 84.8011C47.7347 84.7858 47.664 84.7481 47.6086 84.6926C47.5531 84.6371 47.5154 84.5665 47.5001 84.4896C47.4848 84.4126 47.4926 84.3329 47.5226 84.2604C47.5526 84.188 47.6035 84.126 47.6687 84.0825C47.7339 84.0389 47.8106 84.0156 47.889 84.0156C47.9942 84.0156 48.095 84.0574 48.1694 84.1318C48.2438 84.2061 48.2856 84.307 48.2856 84.4122Z" fill="white"/>
<path d="M44.0115 81.8409C44.0077 82.0267 43.9322 82.2038 43.8008 82.3353C43.6694 82.4667 43.4923 82.5421 43.3065 82.5459C43.1195 82.5459 42.9402 82.4716 42.808 82.3394C42.6758 82.2072 42.6015 82.0279 42.6015 81.8409C42.5995 81.7478 42.6163 81.6552 42.6511 81.5688C42.6858 81.4823 42.7376 81.4038 42.8035 81.3379C42.8694 81.2721 42.9479 81.2202 43.0343 81.1855C43.1208 81.1508 43.2133 81.1339 43.3065 81.1359C43.4935 81.1359 43.6728 81.2102 43.805 81.3424C43.9372 81.4746 44.0115 81.6539 44.0115 81.8409Z" fill="white"/>
<path d="M73.5479 81.5625C75.8111 81.5625 77.9816 82.4616 79.5819 84.0619C81.1823 85.6622 82.0813 87.8327 82.0813 90.096H64.9998C64.9998 88.9741 65.221 87.8632 65.6507 86.8269C66.0805 85.7907 66.7104 84.8493 67.5043 84.0567C68.2983 83.2641 69.2407 82.6358 70.2778 82.2079C71.3148 81.7799 72.426 81.5606 73.5479 81.5625Z" fill="white"/>
<path d="M82.0815 86.4092C82.7815 86.413 83.4517 86.6928 83.9466 87.1878C84.4416 87.6827 84.7214 88.353 84.7252 89.0529H79.4377C79.4416 88.353 79.7214 87.6827 80.2163 87.1878C80.7113 86.6928 81.3815 86.413 82.0815 86.4092Z" fill="white"/>
<path d="M87.9123 83.7656C89.3146 83.7656 90.6595 84.3227 91.6511 85.3143C92.6427 86.3059 93.1998 87.6508 93.1998 89.0531H82.6248C82.6248 87.6508 83.1818 86.3059 84.1734 85.3143C85.165 84.3227 86.5099 83.7656 87.9123 83.7656Z" fill="white"/>
<path d="M81.4055 80.7392C81.4055 81.0965 81.5115 81.4458 81.71 81.7429C81.9085 82.0399 82.1906 82.2715 82.5207 82.4082C82.8508 82.545 83.2141 82.5807 83.5645 82.511C83.915 82.4413 84.2369 82.2693 84.4895 82.0166C84.7422 81.764 84.9142 81.4421 84.9839 81.0916C85.0536 80.7412 85.0179 80.3779 84.8811 80.0478C84.7444 79.7177 84.5128 79.4356 84.2158 79.2371C83.9187 79.0386 83.5694 78.9326 83.2121 78.9326C82.733 78.9326 82.2734 79.123 81.9346 79.4617C81.5959 79.8005 81.4055 80.26 81.4055 80.7392Z" fill="white"/>
<path d="M81.7144 84.4122C81.7144 84.4906 81.7376 84.5673 81.7812 84.6325C81.8248 84.6977 81.8867 84.7486 81.9592 84.7786C82.0316 84.8086 82.1114 84.8164 82.1883 84.8011C82.2652 84.7858 82.3359 84.7481 82.3913 84.6926C82.4468 84.6371 82.4846 84.5665 82.4999 84.4896C82.5152 84.4126 82.5073 84.3329 82.4773 84.2604C82.4473 84.188 82.3964 84.126 82.3312 84.0825C82.266 84.0389 82.1894 84.0156 82.1109 84.0156C82.0057 84.0156 81.9049 84.0574 81.8305 84.1318C81.7561 84.2061 81.7144 84.307 81.7144 84.4122Z" fill="white"/>
<path d="M85.988 81.8409C85.9918 82.0267 86.0673 82.2038 86.1987 82.3353C86.3301 82.4667 86.5072 82.5421 86.693 82.5459C86.88 82.5459 87.0593 82.4716 87.1915 82.3394C87.3238 82.2072 87.398 82.0279 87.398 81.8409C87.4 81.7478 87.3832 81.6552 87.3485 81.5688C87.3137 81.4823 87.2619 81.4038 87.196 81.3379C87.1301 81.2721 87.0516 81.2202 86.9652 81.1855C86.8787 81.1508 86.7862 81.1339 86.693 81.1359C86.5061 81.1359 86.3267 81.2102 86.1945 81.3424C86.0623 81.4746 85.988 81.6539 85.988 81.8409Z" fill="white"/>
<path d="M81.1559 71.282L64.9997 59.6348L48.8434 71.282C48.4291 71.5804 48.0918 71.9731 47.8594 72.4277C47.627 72.8823 47.5061 73.3858 47.5068 73.8963V76.8338C47.5068 77.0247 47.5827 77.2078 47.7176 77.3427C47.8526 77.4777 48.0357 77.5535 48.2265 77.5535H81.7875C81.9783 77.5535 82.1614 77.4777 82.2964 77.3427C82.4313 77.2078 82.5071 77.0247 82.5071 76.8338V73.8963C82.5062 73.3845 82.3831 72.8802 82.1481 72.4255C81.913 71.9708 81.5729 71.5788 81.1559 71.282Z" fill="#1A2B3B"/>
<path d="M98.5901 88.4219H76.3385C75.7672 88.4203 75.2048 88.5636 74.7039 88.8384C74.203 89.1133 73.78 89.5107 73.4744 89.9935C73.1624 90.4869 72.7277 90.8911 72.2129 91.1665C71.6981 91.442 71.1206 91.5793 70.5369 91.565H59.3891C58.8178 91.5666 58.2554 91.4233 57.7545 91.1485C57.2536 90.8736 56.8306 90.4762 56.5251 89.9935C56.2195 89.5107 55.7965 89.1133 55.2956 88.8384C54.7948 88.5636 54.2323 88.4203 53.661 88.4219H31.4094C30.9693 88.4219 30.5471 88.5968 30.2359 88.908C29.9246 89.2193 29.7498 89.6414 29.7498 90.0816V91.0363C29.7498 94.7816 32.6873 96.2503 36.4326 96.2503H93.5669C97.3123 96.2503 100.25 94.7816 100.25 91.0363V90.0816C100.25 89.6414 100.075 89.2193 99.7636 88.908C99.4524 88.5968 99.0302 88.4219 98.5901 88.4219Z" fill="#A2B9D0"/>
<path d="M63.8102 26.2204L60.5937 29.2607C58.3142 31.3921 56.4967 33.9688 55.2537 36.8313C54.0107 39.6937 53.3687 42.7809 53.3674 45.9016V77.5091H76.7499V45.9016C76.7337 42.7723 76.0732 39.6799 74.8098 36.8169C73.5464 33.954 71.707 31.3818 69.4062 29.2607L66.1896 26.2204C65.8679 25.9167 65.4423 25.7476 64.9999 25.7476C64.5576 25.7476 64.1319 25.9167 63.8102 26.2204Z" fill="#1F3145"/>
<path d="M65.8661 78.6243H64.1329C63.8525 78.6243 63.5835 78.5129 63.3852 78.3145C63.1869 78.1162 63.0754 77.8472 63.0754 77.5668V70.7224C63.0754 70.2121 63.2782 69.7227 63.639 69.3619C63.9998 69.0011 64.4892 68.7983 64.9995 68.7983C65.5098 68.7983 65.9992 69.0011 66.36 69.3619C66.7209 69.7227 66.9236 70.2121 66.9236 70.7224V77.5668C66.9236 77.8472 66.8121 78.1162 66.6138 78.3145C66.4155 78.5129 66.1465 78.6243 65.8661 78.6243Z" fill="#1A2B3B"/>
<path d="M68.4951 47.576C69.1835 48.2669 69.6518 49.1462 69.8409 50.103C70.0299 51.0599 69.9312 52.0513 69.5572 52.952C69.1831 53.8528 68.5506 54.6225 67.7394 55.164C66.9282 55.7055 65.9748 55.9945 64.9995 55.9945C64.0241 55.9945 63.0707 55.7055 62.2595 55.164C61.4483 54.6225 60.8158 53.8528 60.4418 52.952C60.0677 52.0513 59.969 51.0599 60.158 50.103C60.3471 49.1462 60.8154 48.2669 61.5038 47.576C61.9623 47.1159 62.5071 46.7509 63.107 46.5018C63.7068 46.2527 64.3499 46.1245 64.9995 46.1245C65.649 46.1245 66.2921 46.2527 66.892 46.5018C67.4918 46.7509 68.0366 47.1159 68.4951 47.576Z" fill="white"/>
<path d="M64.9994 46.1357C65.9761 46.1357 66.9308 46.4256 67.7427 46.9685C68.5546 47.5114 69.1871 48.283 69.5602 49.1856C69.9333 50.0882 70.0301 51.0812 69.8385 52.0389C69.6469 52.9966 69.1754 53.8759 68.4838 54.5655C67.7921 55.2551 66.9114 55.7239 65.9532 55.9127C64.9949 56.1015 64.0022 56.0016 63.1007 55.6259C62.1992 55.2501 61.4295 54.6153 60.889 53.8018C60.3485 52.9883 60.0615 52.0327 60.0644 51.0561C60.0644 50.4087 60.1922 49.7677 60.4404 49.1697C60.6886 48.5718 61.0523 48.0288 61.5108 47.5717C61.9692 47.1146 62.5134 46.7525 63.112 46.5061C63.7107 46.2597 64.3521 46.1338 64.9994 46.1357ZM64.9994 44.667C63.7323 44.667 62.4936 45.0429 61.4402 45.7472C60.3868 46.4516 59.566 47.4526 59.0818 48.6235C58.5975 49.7945 58.4715 51.0829 58.7198 52.3255C58.9681 53.5681 59.5795 54.7091 60.4765 55.6041C61.3736 56.4991 62.516 57.1078 63.7592 57.3532C65.0023 57.5987 66.2904 57.4697 67.4602 56.9828C68.6301 56.4959 69.6292 55.6728 70.3311 54.6178C71.033 53.5628 71.4061 52.3232 71.4032 51.0561C71.3993 49.3602 70.7229 47.7352 69.5224 46.5374C68.3219 45.3397 66.6953 44.667 64.9994 44.667Z" fill="white"/>
<path d="M69.8762 51.4817C69.9055 51.2083 69.9055 50.9326 69.8762 50.6592L64.574 55.9614C64.8528 55.9761 65.1323 55.9761 65.4112 55.9614L69.8762 51.4817Z" fill="#D3DEEA"/>
<path d="M66.4685 55.7415C67.2327 55.52 67.9295 55.1111 68.4954 54.5518C69.0494 53.9818 69.4575 53.2865 69.6851 52.5249L66.4685 55.7415Z" fill="#D3DEEA"/>
<path d="M69.4058 48.7497C69.186 48.319 68.9039 47.9231 68.5686 47.5747L61.5774 54.5513C61.9344 54.8867 62.3345 55.1732 62.7671 55.4031L69.4058 48.7497Z" fill="#D3DEEA"/>
</svg>
