<svg width="129" height="129" viewBox="0 0 129 129" fill="none" xmlns="http://www.w3.org/2000/svg">
<rect width="129" height="129" rx="64.5" fill="white"/>
<path d="M73.175 93.0059C72.7325 93.0059 72.2943 92.9185 71.8857 92.7487C71.4771 92.5789 71.106 92.33 70.7938 92.0164C70.4816 91.7028 70.2344 91.3307 70.0664 90.9213C69.8985 90.5119 69.813 90.0734 69.815 89.6309V84.7559H60.185V89.6309C60.187 90.0734 60.1015 90.5119 59.9336 90.9213C59.7656 91.3307 59.5184 91.7028 59.2062 92.0164C58.894 92.33 58.5229 92.5789 58.1143 92.7487C57.7057 92.9185 57.2675 93.0059 56.825 93.0059C55.4127 93.0059 54.0583 93.5669 53.0597 94.5655C52.061 95.5641 51.5 96.9186 51.5 98.3309C51.504 99.0404 51.7886 99.7195 52.2917 100.22C52.7948 100.72 53.4755 101.001 54.185 101.001H75.815C76.5245 101.001 77.2052 100.72 77.7083 100.22C78.2114 99.7195 78.496 99.0404 78.5 98.3309C78.5 96.9186 77.939 95.5641 76.9403 94.5655C75.9417 93.5669 74.5873 93.0059 73.175 93.0059Z" fill="#1A2B3B"/>
<path d="M75.185 93.0059H54.815C54.3804 93.0039 53.9496 93.0878 53.5475 93.2528C53.1454 93.4177 52.7799 93.6605 52.4718 93.9671C52.1638 94.2738 51.9194 94.6382 51.7526 95.0396C51.5858 95.4409 51.5 95.8713 51.5 96.3059V98.3309C51.504 99.0404 51.7886 99.7195 52.2917 100.22C52.7948 100.72 53.4755 101.001 54.185 101.001H75.815C76.5245 101.001 77.2052 100.72 77.7083 100.22C78.2114 99.7195 78.496 99.0404 78.5 98.3309V96.3059C78.5 95.8713 78.4142 95.4409 78.2474 95.0396C78.0806 94.6382 77.8362 94.2738 77.5282 93.9671C77.2201 93.6605 76.8546 93.4177 76.4525 93.2528C76.0504 93.0878 75.6196 93.0039 75.185 93.0059Z" fill="#1F3145"/>
<path d="M94.94 36.7559H35.06C31.7132 36.7559 29 39.469 29 42.8159V81.6959C29 85.0427 31.7132 87.7559 35.06 87.7559H94.94C98.2868 87.7559 101 85.0427 101 81.6959V42.8159C101 39.469 98.2868 36.7559 94.94 36.7559Z" fill="#D3DEEA"/>
<path d="M77.24 48.6191C78.5144 48.6231 79.7352 49.1322 80.635 50.0347C81.5347 50.9373 82.04 52.1597 82.04 53.4341V86.1491C82.04 88.8041 79.895 81.8741 77.24 81.8741H52.76C50.105 81.8741 47.96 88.8041 47.96 86.1491V59.1491C47.968 58.5865 48.1938 58.0488 48.59 57.6491L56.9 49.3391C57.2981 48.9388 57.8355 48.7077 58.4 48.6941L77.24 48.6191Z" fill="white"/>
<path d="M48.1553 58.2051C48.2632 57.9718 48.4103 57.7587 48.5903 57.5751L56.9003 49.2651C57.0854 49.08 57.3044 48.9324 57.5453 48.8301V53.4051C57.5413 54.6795 57.0323 55.9004 56.1297 56.8001C55.2271 57.6999 54.0047 58.2051 52.7303 58.2051H48.1553Z" fill="#1F3145"/>
<path d="M29 79.0703V81.6953C29 83.2866 29.6321 84.8127 30.7574 85.938C31.8826 87.0632 33.4087 87.6953 35 87.6953H95C96.5913 87.6953 98.1174 87.0632 99.2426 85.938C100.368 84.8127 101 83.2866 101 81.6953V79.0703H29Z" fill="#1F3145"/>
<path d="M101 77.4648H29V79.0548H101V77.4648Z" fill="#A2B9D0"/>
<path d="M82.055 77.4648H47.96V79.0548H82.055V77.4648Z" fill="#D3DEEA"/>
<path d="M65.8699 83.4052C65.8699 83.5772 65.8189 83.7454 65.7233 83.8885C65.6277 84.0316 65.4918 84.1431 65.3328 84.2089C65.1738 84.2748 64.9989 84.292 64.8302 84.2584C64.6614 84.2249 64.5064 84.142 64.3847 84.0203C64.263 83.8987 64.1802 83.7436 64.1466 83.5749C64.113 83.4061 64.1303 83.2312 64.1961 83.0722C64.262 82.9133 64.3735 82.7774 64.5165 82.6818C64.6596 82.5862 64.8278 82.5352 64.9999 82.5352C65.2306 82.5352 65.4519 82.6268 65.6151 82.79C65.7782 82.9531 65.8699 83.1744 65.8699 83.4052Z" fill="#1A2B3B"/>
<path d="M65 46.6409C64.6022 46.6409 64.2206 46.4829 63.9393 46.2016C63.658 45.9203 63.5 45.5388 63.5 45.1409V40.8359C63.5 40.4381 63.658 40.0566 63.9393 39.7753C64.2206 39.494 64.6022 39.3359 65 39.3359C65.3978 39.3359 65.7794 39.494 66.0607 39.7753C66.342 40.0566 66.5 40.4381 66.5 40.8359V45.1409C66.5 45.5388 66.342 45.9203 66.0607 46.2016C65.7794 46.4829 65.3978 46.6409 65 46.6409Z" fill="white"/>
<path d="M64.9997 43.31C63.5846 43.31 62.2013 42.8904 61.0246 42.1042C59.848 41.318 58.9309 40.2005 58.3894 38.8931C57.8478 37.5857 57.7061 36.1471 57.9822 34.7591C58.2583 33.3712 58.9397 32.0963 59.9404 31.0957C60.941 30.095 62.2159 29.4136 63.6039 29.1375C64.9918 28.8614 66.4304 29.0031 67.7378 29.5446C69.0452 30.0862 70.1627 31.0033 70.9489 32.1799C71.7351 33.3565 72.1547 34.7399 72.1547 36.155C72.1508 38.0514 71.3957 39.869 70.0547 41.21C68.7137 42.5509 66.8961 43.306 64.9997 43.31ZM64.9997 33.5C64.474 33.5 63.9601 33.6561 63.5231 33.9485C63.0862 34.2409 62.7459 34.6565 62.5454 35.1425C62.3449 35.6285 62.2932 36.1631 62.3969 36.6785C62.5006 37.1939 62.7549 37.667 63.1277 38.0377C63.5005 38.4084 63.975 38.6601 64.491 38.7608C65.007 38.8615 65.5413 38.8068 66.0262 38.6036C66.5111 38.4003 66.9247 38.0577 67.2146 37.6191C67.5045 37.1805 67.6577 36.6657 67.6547 36.14C67.6508 35.4385 67.3693 34.767 66.8718 34.2723C66.3743 33.7777 65.7013 33.5 64.9997 33.5Z" fill="#1F3145"/>
<path d="M86.3902 50.1347C86.0958 50.1365 85.8073 50.0517 85.5608 49.8907C85.3143 49.7298 85.1206 49.4998 85.0038 49.2296C84.8871 48.9593 84.8525 48.6606 84.9043 48.3708C84.9561 48.081 85.092 47.8128 85.2952 47.5997L88.2952 44.3597C88.4346 44.2191 88.6005 44.1075 88.7833 44.0314C88.9661 43.9552 89.1622 43.916 89.3602 43.916C89.5582 43.916 89.7543 43.9552 89.937 44.0314C90.1198 44.1075 90.2857 44.2191 90.4252 44.3597C90.7046 44.6408 90.8614 45.0209 90.8614 45.4172C90.8614 45.8135 90.7046 46.1937 90.4252 46.4747L87.4252 49.7297C87.1448 49.9923 86.7743 50.1372 86.3902 50.1347Z" fill="white"/>
<path d="M92.7501 48.9487C91.3343 48.9516 89.9495 48.5345 88.7709 47.7501C87.5923 46.9657 86.6729 45.8493 86.129 44.5422C85.5852 43.235 85.4414 41.7959 85.7157 40.407C85.9901 39.0181 86.6704 37.7418 87.6704 36.7396C88.6705 35.7375 89.9453 35.0546 91.3337 34.7773C92.722 34.5 94.1614 34.6408 95.4697 35.1819C96.778 35.723 97.8963 36.64 98.6832 37.817C99.4701 38.994 99.8901 40.3779 99.8901 41.7937C99.8861 43.6875 99.1331 45.5028 97.7954 46.8434C96.4576 48.1839 94.6439 48.9407 92.7501 48.9487ZM92.7501 39.1537C92.2237 39.1507 91.7083 39.3043 91.2694 39.5949C90.8305 39.8854 90.4879 40.2999 90.2851 40.7857C90.0823 41.2714 90.0285 41.8065 90.1304 42.3229C90.2324 42.8393 90.4855 43.3138 90.8578 43.686C91.23 44.0582 91.7044 44.3114 92.2208 44.4133C92.7372 44.5153 93.2723 44.4615 93.7581 44.2586C94.2438 44.0558 94.6583 43.7132 94.9489 43.2743C95.2395 42.8354 95.393 42.32 95.3901 41.7937C95.3901 41.0935 95.1119 40.422 94.6168 39.9269C94.1217 39.4318 93.4503 39.1537 92.7501 39.1537Z" fill="#1F3145"/>
<path d="M43.6101 50.1359C43.4019 50.1373 43.1956 50.0953 43.0045 50.0127C42.8134 49.9301 42.6416 49.8085 42.5001 49.6559L39.5001 46.4009C39.2295 46.1085 39.0862 45.7206 39.1017 45.3225C39.1094 45.1254 39.1558 44.9318 39.2383 44.7526C39.3208 44.5735 39.4378 44.4123 39.5826 44.2784C39.7273 44.1444 39.8971 44.0403 40.0821 43.972C40.2671 43.9036 40.4638 43.8724 40.6609 43.88C41.0589 43.8955 41.4345 44.0685 41.7051 44.3609L44.7051 47.6009C44.9082 47.814 45.0442 48.0821 45.096 48.372C45.1478 48.6618 45.1131 48.9604 44.9964 49.2307C44.8796 49.501 44.6859 49.7309 44.4394 49.8919C44.1929 50.0528 43.9045 50.1377 43.6101 50.1359Z" fill="white"/>
<path d="M37.2497 48.9487C35.8346 48.9487 34.4513 48.529 33.2746 47.7428C32.098 46.9566 31.1809 45.8392 30.6394 44.5318C30.0978 43.2244 29.9561 41.7857 30.2322 40.3978C30.5083 39.0099 31.1897 37.735 32.1904 36.7343C33.191 35.7337 34.4659 35.0522 35.8539 34.7762C37.2418 34.5001 38.6804 34.6418 39.9878 35.1833C41.2952 35.7249 42.4127 36.6419 43.1989 37.8186C43.9851 38.9952 44.4047 40.3786 44.4047 41.7937C44.4047 43.6913 43.6509 45.5112 42.3091 46.853C40.9673 48.1948 39.1474 48.9487 37.2497 48.9487ZM37.2497 39.1537C36.724 39.1537 36.2101 39.3098 35.7731 39.6022C35.3362 39.8946 34.9959 40.3101 34.7954 40.7961C34.5949 41.2822 34.5432 41.8168 34.6469 42.3322C34.7506 42.8476 35.0049 43.3207 35.3777 43.6914C35.7505 44.0621 36.225 44.3137 36.741 44.4145C37.257 44.5152 37.7913 44.4605 38.2762 44.2572C38.7611 44.054 39.1747 43.7114 39.4646 43.2728C39.7545 42.8342 39.9077 42.3194 39.9047 41.7937C39.9047 41.4457 39.836 41.1012 39.7023 40.7799C39.5687 40.4586 39.3729 40.1669 39.1262 39.9216C38.8795 39.6762 38.5867 39.4821 38.2646 39.3503C37.9426 39.2185 37.5977 39.1517 37.2497 39.1537Z" fill="#1F3145"/>
</svg>
